<svg viewBox="0 0 300 350" xmlns="http://www.w3.org/2000/svg">
  <!-- Robot head -->
  <circle cx="150" cy="50" r="8" fill="#E53E3E"/>
  <rect x="80" y="80" width="140" height="100" rx="50" fill="#E53E3E"/>
  
  <!-- Eyes -->
  <ellipse cx="120" cy="120" rx="25" ry="30" fill="white"/>
  <ellipse cx="180" cy="120" rx="25" ry="30" fill="white"/>
  <circle cx="120" cy="125" r="8" fill="#E53E3E"/>
  <circle cx="180" cy="125" r="8" fill="#E53E3E"/>
  
  <!-- Ears -->
  <rect x="65" y="100" width="15" height="30" rx="7" fill="#E53E3E"/>
  <rect x="220" y="100" width="15" height="30" rx="7" fill="#E53E3E"/>
  
  <!-- Book -->
  <path d="M 150 180 L 50 220 L 50 320 L 150 280 Z" fill="#E53E3E"/>
  <path d="M 150 180 L 250 220 L 250 320 L 150 280 Z" fill="#E53E3E"/>
  
  <!-- Book pages -->
  <rect x="60" y="240" width="80" height="8" rx="4" fill="white"/>
  <rect x="60" y="255" width="60" height="8" rx="4" fill="white"/>
  <rect x="60" y="270" width="70" height="8" rx="4" fill="white"/>
  
  <rect x="160" y="230" width="80" height="8" rx="4" fill="white"/>
  <rect x="160" y="245" width="70" height="8" rx="4" fill="white"/>
  <rect x="160" y="260" width="80" height="8" rx="4" fill="white"/>
  <rect x="160" y="275" width="60" height="8" rx="4" fill="white"/>
  <rect x="160" y="290" width="75" height="8" rx="4" fill="white"/>
  
  <!-- Book spine circles -->
  <circle cx="25" cy="250" r="12" fill="#E53E3E"/>
  <circle cx="275" cy="250" r="12" fill="#E53E3E"/>
</svg>